<mxfile host="app.diagrams.net" modified="2023-06-05T08:53:41.682Z" agent="Mozilla/5.0 (Windows NT 10.0; Win64; x64) AppleWebKit/537.36 (KHTML, like Gecko) Chrome/113.0.0.0 Safari/537.36" etag="XLNS9PUpDm9Dbq4esoM7" version="21.3.7" type="device">
  <diagram name="Page-1" id="IsCAG9EBEDEz-0Z08IRQ">
    <mxGraphModel dx="1434" dy="802" grid="1" gridSize="10" guides="1" tooltips="1" connect="1" arrows="1" fold="1" page="1" pageScale="1" pageWidth="850" pageHeight="1100" math="0" shadow="0">
      <root>
        <mxCell id="0" />
        <mxCell id="1" parent="0" />
        <mxCell id="BVAmYGAtuPXn5raohfIf-5" value="" style="endArrow=none;html=1;rounded=0;" edge="1" parent="1">
          <mxGeometry width="50" height="50" relative="1" as="geometry">
            <mxPoint x="40" y="680" as="sourcePoint" />
            <mxPoint x="800" y="40" as="targetPoint" />
            <Array as="points">
              <mxPoint x="800" y="680" />
            </Array>
          </mxGeometry>
        </mxCell>
        <mxCell id="BVAmYGAtuPXn5raohfIf-7" value="" style="endArrow=none;html=1;rounded=0;" edge="1" parent="1" target="BVAmYGAtuPXn5raohfIf-43">
          <mxGeometry width="50" height="50" relative="1" as="geometry">
            <mxPoint x="40" y="680" as="sourcePoint" />
            <mxPoint x="40" y="100" as="targetPoint" />
            <Array as="points" />
          </mxGeometry>
        </mxCell>
        <mxCell id="BVAmYGAtuPXn5raohfIf-8" value="" style="endArrow=none;html=1;rounded=0;" edge="1" parent="1">
          <mxGeometry width="50" height="50" relative="1" as="geometry">
            <mxPoint x="50" y="40" as="sourcePoint" />
            <mxPoint x="800" y="40" as="targetPoint" />
          </mxGeometry>
        </mxCell>
        <mxCell id="BVAmYGAtuPXn5raohfIf-10" value="" style="endArrow=none;dashed=1;html=1;dashPattern=1 3;strokeWidth=2;rounded=0;fontColor=#FFFFFF;strokeColor=#CC0000;" edge="1" parent="1" target="BVAmYGAtuPXn5raohfIf-46">
          <mxGeometry width="50" height="50" relative="1" as="geometry">
            <mxPoint x="160" y="330" as="sourcePoint" />
            <mxPoint x="155" y="110" as="targetPoint" />
            <Array as="points" />
          </mxGeometry>
        </mxCell>
        <mxCell id="BVAmYGAtuPXn5raohfIf-12" value="" style="endArrow=none;dashed=1;html=1;dashPattern=1 3;strokeWidth=2;rounded=0;fillColor=#a20025;strokeColor=#CC0000;" edge="1" parent="1" target="BVAmYGAtuPXn5raohfIf-47">
          <mxGeometry width="50" height="50" relative="1" as="geometry">
            <mxPoint x="515" y="140" as="sourcePoint" />
            <mxPoint x="515" y="120" as="targetPoint" />
            <Array as="points" />
          </mxGeometry>
        </mxCell>
        <mxCell id="BVAmYGAtuPXn5raohfIf-16" value="PEERING" style="endArrow=classic;startArrow=classic;html=1;rounded=0;" edge="1" parent="1">
          <mxGeometry width="50" height="50" relative="1" as="geometry">
            <mxPoint x="410" y="240" as="sourcePoint" />
            <mxPoint x="510" y="240" as="targetPoint" />
            <mxPoint as="offset" />
          </mxGeometry>
        </mxCell>
        <mxCell id="BVAmYGAtuPXn5raohfIf-22" value="" style="endArrow=none;dashed=1;html=1;dashPattern=1 3;strokeWidth=2;rounded=0;fillColor=#a20025;strokeColor=#CC0000;" edge="1" parent="1" source="BVAmYGAtuPXn5raohfIf-47">
          <mxGeometry width="50" height="50" relative="1" as="geometry">
            <mxPoint x="540" y="80" as="sourcePoint" />
            <mxPoint x="515.3658536585365" y="170" as="targetPoint" />
            <Array as="points">
              <mxPoint x="760" y="80" />
              <mxPoint x="760" y="360" />
              <mxPoint x="520" y="360" />
            </Array>
          </mxGeometry>
        </mxCell>
        <mxCell id="BVAmYGAtuPXn5raohfIf-23" value="" style="endArrow=none;dashed=1;html=1;dashPattern=1 3;strokeWidth=2;rounded=0;fontColor=#FFFFFF;strokeColor=#CC0000;" edge="1" parent="1" source="BVAmYGAtuPXn5raohfIf-46">
          <mxGeometry width="50" height="50" relative="1" as="geometry">
            <mxPoint x="180" y="80" as="sourcePoint" />
            <mxPoint x="160" y="330" as="targetPoint" />
            <Array as="points">
              <mxPoint x="400" y="80" />
              <mxPoint x="400" y="360" />
              <mxPoint x="160" y="360" />
            </Array>
          </mxGeometry>
        </mxCell>
        <mxCell id="BVAmYGAtuPXn5raohfIf-24" value="" style="endArrow=none;dashed=1;html=1;rounded=0;fillColor=#1ba1e2;strokeColor=#006EAF;entryX=0.531;entryY=1.063;entryDx=0;entryDy=0;entryPerimeter=0;" edge="1" parent="1" source="BVAmYGAtuPXn5raohfIf-49" target="BVAmYGAtuPXn5raohfIf-49">
          <mxGeometry width="50" height="50" relative="1" as="geometry">
            <mxPoint x="170" y="280" as="sourcePoint" />
            <mxPoint x="155" y="330" as="targetPoint" />
            <Array as="points">
              <mxPoint x="230" y="280" />
              <mxPoint x="410" y="280" />
              <mxPoint x="410" y="360" />
              <mxPoint x="140" y="360" />
            </Array>
          </mxGeometry>
        </mxCell>
        <mxCell id="BVAmYGAtuPXn5raohfIf-25" value="" style="endArrow=none;html=1;rounded=0;" edge="1" parent="1">
          <mxGeometry width="50" height="50" relative="1" as="geometry">
            <mxPoint x="280" y="380" as="sourcePoint" />
            <mxPoint x="280" y="60" as="targetPoint" />
          </mxGeometry>
        </mxCell>
        <mxCell id="BVAmYGAtuPXn5raohfIf-27" value="AZ 1" style="text;html=1;align=center;verticalAlign=middle;resizable=0;points=[];autosize=1;strokeColor=none;fillColor=none;" vertex="1" parent="1">
          <mxGeometry x="200" y="50" width="50" height="30" as="geometry" />
        </mxCell>
        <mxCell id="BVAmYGAtuPXn5raohfIf-28" value="AZ 2" style="text;html=1;align=center;verticalAlign=middle;resizable=0;points=[];autosize=1;strokeColor=none;fillColor=none;" vertex="1" parent="1">
          <mxGeometry x="310" y="50" width="50" height="30" as="geometry" />
        </mxCell>
        <mxCell id="BVAmYGAtuPXn5raohfIf-29" value="" style="endArrow=none;html=1;rounded=0;" edge="1" parent="1">
          <mxGeometry width="50" height="50" relative="1" as="geometry">
            <mxPoint x="640" y="380" as="sourcePoint" />
            <mxPoint x="640" y="60" as="targetPoint" />
          </mxGeometry>
        </mxCell>
        <mxCell id="BVAmYGAtuPXn5raohfIf-30" value="AZ 1" style="text;html=1;align=center;verticalAlign=middle;resizable=0;points=[];autosize=1;strokeColor=none;fillColor=none;" vertex="1" parent="1">
          <mxGeometry x="560" y="50" width="50" height="30" as="geometry" />
        </mxCell>
        <mxCell id="BVAmYGAtuPXn5raohfIf-31" value="AZ 2" style="text;html=1;align=center;verticalAlign=middle;resizable=0;points=[];autosize=1;strokeColor=none;fillColor=none;" vertex="1" parent="1">
          <mxGeometry x="690" y="50" width="50" height="30" as="geometry" />
        </mxCell>
        <mxCell id="BVAmYGAtuPXn5raohfIf-32" value="" style="endArrow=none;dashed=1;html=1;rounded=0;fillColor=#1ba1e2;strokeColor=#006EAF;entryX=0.475;entryY=0.958;entryDx=0;entryDy=0;entryPerimeter=0;" edge="1" parent="1" target="BVAmYGAtuPXn5raohfIf-50">
          <mxGeometry width="50" height="50" relative="1" as="geometry">
            <mxPoint x="530" y="155" as="sourcePoint" />
            <mxPoint x="460" y="190" as="targetPoint" />
            <Array as="points">
              <mxPoint x="530" y="155" />
              <mxPoint x="770" y="155" />
              <mxPoint x="770" y="235" />
              <mxPoint x="510" y="235" />
            </Array>
          </mxGeometry>
        </mxCell>
        <mxCell id="BVAmYGAtuPXn5raohfIf-39" value="" style="endArrow=none;dashed=1;html=1;dashPattern=1 3;strokeWidth=2;rounded=0;fillColor=#60a917;strokeColor=#2D7600;exitX=0.985;exitY=0.327;exitDx=0;exitDy=0;exitPerimeter=0;entryX=0.4;entryY=1.038;entryDx=0;entryDy=0;entryPerimeter=0;" edge="1" parent="1" source="BVAmYGAtuPXn5raohfIf-57" target="BVAmYGAtuPXn5raohfIf-57">
          <mxGeometry width="50" height="50" relative="1" as="geometry">
            <mxPoint x="140" y="478" as="sourcePoint" />
            <mxPoint x="80" y="550" as="targetPoint" />
            <Array as="points">
              <mxPoint x="360" y="480" />
              <mxPoint x="360" y="600" />
              <mxPoint x="80" y="600" />
            </Array>
          </mxGeometry>
        </mxCell>
        <mxCell id="BVAmYGAtuPXn5raohfIf-41" value="KEY VAULT" style="image;sketch=0;aspect=fixed;html=1;points=[];align=center;fontSize=12;image=img/lib/mscae/Key_Vaults.svg;" vertex="1" parent="1">
          <mxGeometry x="420" y="590" width="48" height="50" as="geometry" />
        </mxCell>
        <mxCell id="BVAmYGAtuPXn5raohfIf-42" value="RECOVERY SERVICE VAULT" style="image;aspect=fixed;html=1;points=[];align=center;fontSize=12;image=img/lib/azure2/management_governance/Recovery_Services_Vaults.svg;" vertex="1" parent="1">
          <mxGeometry x="610" y="580" width="69" height="60" as="geometry" />
        </mxCell>
        <mxCell id="BVAmYGAtuPXn5raohfIf-43" value="" style="image;aspect=fixed;html=1;points=[];align=center;fontSize=12;image=img/lib/azure2/general/Subscriptions.svg;" vertex="1" parent="1">
          <mxGeometry x="16" y="9" width="44" height="71" as="geometry" />
        </mxCell>
        <mxCell id="BVAmYGAtuPXn5raohfIf-46" value="app-prd-vnet" style="image;aspect=fixed;html=1;points=[];align=center;fontSize=12;image=img/lib/azure2/networking/Virtual_Networks.svg;" vertex="1" parent="1">
          <mxGeometry x="126.5" y="60" width="67" height="40" as="geometry" />
        </mxCell>
        <mxCell id="BVAmYGAtuPXn5raohfIf-47" value="managment-prd-vnet" style="image;aspect=fixed;html=1;points=[];align=center;fontSize=12;image=img/lib/azure2/networking/Virtual_Networks.svg;" vertex="1" parent="1">
          <mxGeometry x="481.5" y="60" width="67" height="40" as="geometry" />
        </mxCell>
        <mxCell id="BVAmYGAtuPXn5raohfIf-49" value="Application subnet &lt;br&gt;with NSG" style="image;aspect=fixed;html=1;points=[];align=center;fontSize=12;image=img/lib/azure2/networking/Network_Security_Groups.svg;" vertex="1" parent="1">
          <mxGeometry x="120.00000000000001" y="260" width="39.53" height="48" as="geometry" />
        </mxCell>
        <mxCell id="BVAmYGAtuPXn5raohfIf-50" value="Management subnet &lt;br&gt;with NSG" style="image;aspect=fixed;html=1;points=[];align=center;fontSize=12;image=img/lib/azure2/networking/Network_Security_Groups.svg;" vertex="1" parent="1">
          <mxGeometry x="495.23" y="140" width="39.53" height="48" as="geometry" />
        </mxCell>
        <mxCell id="BVAmYGAtuPXn5raohfIf-53" value="Management Server" style="verticalLabelPosition=bottom;html=1;verticalAlign=top;align=center;strokeColor=none;fillColor=#00BEF2;shape=mxgraph.azure.server;" vertex="1" parent="1">
          <mxGeometry x="570" y="160" width="50" height="15" as="geometry" />
        </mxCell>
        <mxCell id="BVAmYGAtuPXn5raohfIf-54" value="Web Server" style="verticalLabelPosition=bottom;html=1;verticalAlign=top;align=center;strokeColor=none;fillColor=#00BEF2;shape=mxgraph.azure.server;" vertex="1" parent="1">
          <mxGeometry x="320" y="293" width="50" height="15" as="geometry" />
        </mxCell>
        <mxCell id="BVAmYGAtuPXn5raohfIf-57" value="Storage Account" style="image;aspect=fixed;html=1;points=[];align=center;fontSize=12;image=img/lib/azure2/storage/Storage_Accounts.svg;" vertex="1" parent="1">
          <mxGeometry x="55" y="460" width="65" height="52" as="geometry" />
        </mxCell>
        <mxCell id="BVAmYGAtuPXn5raohfIf-58" value="Post&amp;nbsp; Deployment Scripts" style="verticalLabelPosition=bottom;html=1;verticalAlign=top;align=center;strokeColor=none;fillColor=#00BEF2;shape=mxgraph.azure.script_file;pointerEvents=1;" vertex="1" parent="1">
          <mxGeometry x="202.5" y="500" width="47.5" height="50" as="geometry" />
        </mxCell>
      </root>
    </mxGraphModel>
  </diagram>
</mxfile>
